<svg
  xmlns="http://www.w3.org/2000/svg"
  width="107"
  height="128"
  viewBox="0 0 107 128"
  style="color-scheme: light dark"
>
  <path
    fill="light-dark(#d2c0f9, #574c72)"
    d="M94 23a34 34 0 0 0-46-10L22 30A30 30 0 0 0 9 50a32 32 0 0 0 3 20L7 81a32 32 0 0 0 6 24c10 15 31 19 46 10l26-17a30 30 0 0 0 13-20 32 32 0 0 0-3-20l5-11a32 32 0 0 0-6-24"
  />
  <path
    fill="light-dark(#483a6a, #eadeff)"
    d="M46 107a21 21 0 0 1-22-9 19 19 0 0 1-4-14l1-3v-1l2 1 10 5h1v1l1 4a6 6 0 0 0 7 3l1-1 26-17 3-3-1-5a6 6 0 0 0-7-2h-2l-10 7-5 2a21 21 0 0 1-22-8 19 19 0 0 1-3-15 18 18 0 0 1 8-12l26-16 5-3a21 21 0 0 1 22 9 19 19 0 0 1 4 14l-1 3v1l-2-1-10-5h-1v-1l-1-4a6 6 0 0 0-7-3l-1 1-26 17-3 3 1 5a6 6 0 0 0 7 2h2l10-7 5-2a21 21 0 0 1 22 8 19 19 0 0 1 3 15 18 18 0 0 1-8 12l-26 16z"
  />
</svg>
