<svg width="1280" height="640" xmlns="http://www.w3.org/2000/svg">
  <defs>
    <style>
      @import url("https://fonts.googleapis.com/css2?family=Roboto:wght@700&amp;display=swap");
    </style>
  </defs>
  <rect width="100%" height="100%" fill="#1c1b1f"/>

  <g>
    <circle 
      cx="98.46153846153847" 
      cy="160" 
      r="8"
      fill="#ffb0c8"
    />
    <circle 
      cx="98.46153846153847" 
      cy="320" 
      r="8"
      fill="#e2bdc6"
    />
    <circle 
      cx="98.46153846153847" 
      cy="480" 
      r="8"
      fill="#efbd94"
    />
    <circle 
      cx="196.92307692307693" 
      cy="160" 
      r="8"
      fill="#ffb4a5"
    />
    <circle 
      cx="196.92307692307693" 
      cy="320" 
      r="8"
      fill="#e7bdb4"
    />
    <circle 
      cx="196.92307692307693" 
      cy="480" 
      r="8"
      fill="#dcc48c"
    />
    <circle 
      cx="295.3846153846154" 
      cy="160" 
      r="8"
      fill="#ffb77a"
    />
    <circle 
      cx="295.3846153846154" 
      cy="320" 
      r="8"
      fill="#e3c0a5"
    />
    <circle 
      cx="295.3846153846154" 
      cy="480" 
      r="8"
      fill="#c4cb97"
    />
    <circle 
      cx="393.84615384615387" 
      cy="160" 
      r="8"
      fill="#e5c36c"
    />
    <circle 
      cx="393.84615384615387" 
      cy="320" 
      r="8"
      fill="#d6c5a0"
    />
    <circle 
      cx="393.84615384615387" 
      cy="480" 
      r="8"
      fill="#aecfac"
    />
    <circle 
      cx="492.3076923076923" 
      cy="160" 
      r="8"
      fill="#c0ce7e"
    />
    <circle 
      cx="492.3076923076923" 
      cy="320" 
      r="8"
      fill="#c5c9a8"
    />
    <circle 
      cx="492.3076923076923" 
      cy="480" 
      r="8"
      fill="#a2d0c3"
    />
    <circle 
      cx="590.7692307692308" 
      cy="160" 
      r="8"
      fill="#9cd49f"
    />
    <circle 
      cx="590.7692307692308" 
      cy="320" 
      r="8"
      fill="#b8ccb5"
    />
    <circle 
      cx="590.7692307692308" 
      cy="480" 
      r="8"
      fill="#a1ced7"
    />
    <circle 
      cx="689.2307692307693" 
      cy="160" 
      r="8"
      fill="#84d6c2"
    />
    <circle 
      cx="689.2307692307693" 
      cy="320" 
      r="8"
      fill="#b1ccc4"
    />
    <circle 
      cx="689.2307692307693" 
      cy="480" 
      r="8"
      fill="#abcbe4"
    />
    <circle 
      cx="787.6923076923077" 
      cy="160" 
      r="8"
      fill="#82d3e1"
    />
    <circle 
      cx="787.6923076923077" 
      cy="320" 
      r="8"
      fill="#b1cbd0"
    />
    <circle 
      cx="787.6923076923077" 
      cy="480" 
      r="8"
      fill="#bbc6ea"
    />
    <circle 
      cx="886.1538461538462" 
      cy="160" 
      r="8"
      fill="#94cdf7"
    />
    <circle 
      cx="886.1538461538462" 
      cy="320" 
      r="8"
      fill="#b7c9d8"
    />
    <circle 
      cx="886.1538461538462" 
      cy="480" 
      r="8"
      fill="#cec0e8"
    />
    <circle 
      cx="984.6153846153846" 
      cy="160" 
      r="8"
      fill="#b2c5ff"
    />
    <circle 
      cx="984.6153846153846" 
      cy="320" 
      r="8"
      fill="#c0c6dd"
    />
    <circle 
      cx="984.6153846153846" 
      cy="480" 
      r="8"
      fill="#e1bbdd"
    />
    <circle 
      cx="1083.076923076923" 
      cy="160" 
      r="8"
      fill="#d0bcfe"
    />
    <circle 
      cx="1083.076923076923" 
      cy="320" 
      r="8"
      fill="#ccc2db"
    />
    <circle 
      cx="1083.076923076923" 
      cy="480" 
      r="8"
      fill="#f0b8c7"
    />
    <circle 
      cx="1181.5384615384617" 
      cy="160" 
      r="8"
      fill="#edb4ea"
    />
    <circle 
      cx="1181.5384615384617" 
      cy="320" 
      r="8"
      fill="#d8bfd4"
    />
    <circle 
      cx="1181.5384615384617" 
      cy="480" 
      r="8"
      fill="#f6b8ab"
    />
  </g>
  <text
    x="50%"
    y="50%"
    font-family="Roboto"
    font-size="120"
    font-weight="700"
    fill="white"
    text-anchor="middle"
    dominant-baseline="middle"
  >M3 Svelte</text>
</svg>