<svg xmlns="http://www.w3.org/2000/svg" width="1280" height="640"><rect width="100%" height="100%" fill="#1c1b1f"/><circle cx="98.5" cy="160" r="8" fill="#ffb0c8"/><circle cx="98.5" cy="320" r="8" fill="#e2bdc6"/><circle cx="98.5" cy="480" r="8" fill="#efbd94"/><circle cx="196.9" cy="160" r="8" fill="#ffb4a5"/><circle cx="196.9" cy="320" r="8" fill="#e7bdb4"/><circle cx="196.9" cy="480" r="8" fill="#dcc48c"/><circle cx="295.4" cy="160" r="8" fill="#ffb77a"/><circle cx="295.4" cy="320" r="8" fill="#e3c0a5"/><circle cx="295.4" cy="480" r="8" fill="#c4cb97"/><circle cx="393.8" cy="160" r="8" fill="#e5c36c"/><circle cx="393.8" cy="480" r="8" fill="#aecfac"/><circle cx="492.3" cy="160" r="8" fill="#c0ce7e"/><circle cx="492.3" cy="480" r="8" fill="#a2d0c3"/><circle cx="590.8" cy="160" r="8" fill="#9cd49f"/><circle cx="590.8" cy="480" r="8" fill="#a1ced7"/><circle cx="689.2" cy="160" r="8" fill="#84d6c2"/><circle cx="689.2" cy="480" r="8" fill="#abcbe4"/><circle cx="787.7" cy="160" r="8" fill="#82d3e1"/><circle cx="787.7" cy="480" r="8" fill="#bbc6ea"/><circle cx="886.2" cy="160" r="8" fill="#94cdf7"/><circle cx="886.2" cy="480" r="8" fill="#cec0e8"/><circle cx="984.6" cy="160" r="8" fill="#b2c5ff"/><circle cx="984.6" cy="320" r="8" fill="#c0c6dd"/><circle cx="984.6" cy="480" r="8" fill="#e1bbdd"/><circle cx="1083.1" cy="160" r="8" fill="#d0bcfe"/><circle cx="1083.1" cy="320" r="8" fill="#ccc2db"/><circle cx="1083.1" cy="480" r="8" fill="#f0b8c7"/><circle cx="1181.5" cy="160" r="8" fill="#edb4ea"/><circle cx="1181.5" cy="320" r="8" fill="#d8bfd4"/><circle cx="1181.5" cy="480" r="8" fill="#f6b8ab"/><path fill="#fff" d="M367 352v-86h27l24 56 25-56h26v86h-20v-54l-23 54h-16l-22-54v54zm143 1q-9 0-15-3-6-2-10-6l-6-8-1-5 15-6 1 2 2 5 5 3q2 2 7 2t9-3q3-3 3-8 0-6-3-8-3-3-9-3h-9v-15h8q6 0 9-2 3-3 3-7 0-5-3-8-3-2-8-2l-5 1-4 3-3 4-1 2-15-6 2-4 6-8q4-4 9-6 6-3 13-3 12 0 19 6t7 16q0 6-3 11-3 6-10 8 8 1 12 7 5 6 5 14 0 12-8 20-8 7-22 7m99 0q-9 0-16-2t-12-7l-7-9-2-5 18-6 2 3q1 3 4 5l6 3q3 2 8 2t9-3 3-7q0-4-4-7l-15-5q-15-4-21-11-6-6-6-15 0-11 9-18t24-7q8 0 14 2l10 6 7 8 2 4-17 7-2-3-3-4-5-3-6-1q-5 0-8 3-4 2-4 5 0 4 4 6l16 6q15 4 21 10 5 7 5 16 0 13-9 20t-25 7m58-1-23-64h20l12 36 1 6 1-6 13-36h20l-24 64zm76 1q-15 0-25-9-9-10-9-24t9-24 24-9q15 0 24 9 8 9 8 23v6h-56v-10h39q0-6-4-9t-11-3-11 4-5 14 5 12 12 5l7-1 5-3 4-6 14 7q-4 7-8 10-4 4-9 6-6 2-13 2m39-1v-86h19v86zm54 1q-9 0-15-5-5-5-5-15v-60h20v58l1 5 4 1h3l3-1h2v14l-2 1-6 1zm-29-49v-16h42v16zm80 49q-15 0-24-9-10-10-10-24t10-24 23-9 24 9 9 23v6h-56v-10h39q-1-6-5-9t-10-3-12 4-5 14 5 12 12 5l7-1 5-3 5-6 13 7q-4 7-8 10-4 4-9 6-6 2-13 2"/></svg>
